<svg width="507" height="690" viewBox="0 0 507 690" fill="none" xmlns="http://www.w3.org/2000/svg">
<path d="M-280.647 315.005L-292.467 335.378M-284.952 352.214L-253.293 299.14M-225.521 284.045L-274.919 370.67M-265.723 387.589L-197.749 268.949M-171.239 254.54L-256.945 403.739M-247.331 421.427L-142.205 238.758M-115.695 224.349L-238.552 437.577M-229.356 454.495L-87.923 209.253M-60.151 194.158L-220.16 471.414M-210.964 488.333L-33.6414 179.749M-4.60707 163.967L-202.185 504.483M-192.989 521.401L21.9026 149.558M50.9369 133.776L-184.211 537.551M-174.597 555.239L76.1842 120.053M103.956 104.957L-165.401 572.158M-156.622 588.308L131.728 89.8617M158.238 75.4524L-147.426 605.226M-138.23 622.145L186.01 60.3568M213.782 45.2613L-129.452 638.295M-120.255 655.214L240.291 30.852M269.326 15.0703L-111.059 672.132M-101.863 689.051L295.835 0.660952M316 1.65546L-83.7968 689.194M-54.7624 673.412L323.942 16.2671M333.974 34.724L-28.2528 659.003M-0.480834 643.907L342.334 50.1047M352.367 68.5616L27.2912 628.812M55.0631 613.716L360.727 83.9423M370.759 102.399L81.5728 599.307M109.345 584.211L379.119 117.78M389.152 136.237L135.854 569.802M163.626 554.707L397.512 151.617M406.708 168.536L190.136 540.297M219.17 524.516L415.068 183.917M425.101 202.374L244.418 510.792M273.452 495.011L433.043 216.985M442.657 234.673L299.962 480.601M327.734 465.506L451.853 251.592M461.468 269.28L354.243 451.096M383.278 435.315L469.828 284.661M479.442 302.348L409.787 420.905M437.559 405.81L488.22 318.498M498.671 337.724L466.593 390.028M490.578 376.991L505.777 350.798" stroke="#D71928"/>
</svg>
