<svg width="228" height="228" viewBox="0 0 228 228" fill="none" xmlns="http://www.w3.org/2000/svg">
<path d="M212.199 122.563L212.777 118.04L210.577 116.912L210.76 115.484L220.592 120.552L220.392 122.114L209.603 124.53L209.786 123.102L212.199 122.563ZM213.349 122.317L218.826 121.112L213.829 118.568L213.349 122.317Z" fill="black"/>
<path d="M207.177 138.215L211.987 137.057L212.461 135.476L208.366 134.249L208.757 132.941L218.772 135.943L217.804 139.175C217.577 139.932 217.257 140.53 216.843 140.97C216.426 141.42 215.959 141.708 215.441 141.834C214.923 141.961 214.381 141.939 213.816 141.77C213.126 141.563 212.578 141.18 212.172 140.62C211.763 140.069 211.591 139.37 211.657 138.524L206.708 139.781L207.177 138.215ZM213.51 135.79L212.933 137.716C212.72 138.425 212.733 139.008 212.972 139.466C213.22 139.926 213.636 140.244 214.221 140.419C214.815 140.597 215.328 140.558 215.759 140.301C216.189 140.054 216.511 139.571 216.726 138.853L217.303 136.927L213.51 135.79Z" fill="black"/>
<path d="M212.466 152.553L209.29 151.096L207.701 154.559L206.679 154.09L208.267 150.627L204.995 149.126L203.219 152.999L202.196 152.53L204.541 147.417L214.058 151.781L211.713 156.894L210.691 156.425L212.466 152.553Z" fill="black"/>
<path d="M194.934 166.159L195.705 165.032L205.676 165.198L198.803 160.5L199.573 159.373L208.217 165.282L207.446 166.409L197.488 166.251L204.348 170.941L203.578 172.068L194.934 166.159Z" fill="black"/>
<path d="M187.227 180.154L190.416 176.894L189.341 174.668L190.348 173.639L195.135 183.61L194.033 184.736L183.97 180.157L184.977 179.128L187.227 180.154ZM188.293 180.651L193.389 182.993L190.936 177.949L188.293 180.651Z" fill="black"/>
<path d="M172.044 197.63C171.691 197.785 171.317 197.84 170.921 197.797C170.517 197.76 170.139 197.634 169.788 197.42C169.428 197.211 169.135 196.93 168.908 196.576C168.622 196.13 168.477 195.653 168.472 195.145C168.472 194.646 168.624 194.151 168.927 193.66C169.226 193.182 169.671 192.754 170.26 192.377L173.543 190.271L179.187 199.071L176.031 201.096C175.433 201.479 174.859 201.705 174.309 201.773C173.764 201.849 173.278 201.786 172.852 201.585C172.425 201.383 172.077 201.072 171.807 200.651C171.472 200.129 171.338 199.604 171.402 199.075C171.464 198.56 171.678 198.078 172.044 197.63ZM175.601 196.008L173.669 197.247C173.13 197.592 172.795 197.986 172.662 198.427C172.529 198.869 172.606 199.313 172.892 199.759C173.178 200.205 173.55 200.46 174.006 200.523C174.463 200.587 174.969 200.44 175.525 200.084L177.431 198.861L175.601 196.008ZM170.968 193.259C170.396 193.626 170.036 194.047 169.889 194.521C169.742 194.996 169.822 195.473 170.13 195.953C170.443 196.441 170.857 196.716 171.372 196.778C171.892 196.848 172.435 196.702 172.999 196.34L174.993 195.061L173.001 191.955L170.968 193.259Z" fill="black"/>
<path d="M156.172 203.34L160.365 201.548L160.223 199.08L161.548 198.514L162.157 209.559L160.709 210.177L153.161 202.098L154.486 201.533L156.172 203.34ZM156.966 204.208L160.779 208.32L160.442 202.722L156.966 204.208Z" fill="black"/>
<path d="M141.872 217.206L141.598 216.13L144.36 215.426L142.053 206.371L143.376 206.034L145.683 215.089L148.459 214.382L148.733 215.458L141.872 217.206Z" fill="black"/>
<path d="M127.228 220.097L127.104 218.994L129.936 218.676L128.894 209.389L130.25 209.237L131.293 218.523L134.14 218.204L134.264 219.307L127.228 220.097Z" fill="black"/>
<path d="M117.294 211.63L113.634 211.588L113.647 210.478L118.672 210.536L118.551 220.99L117.186 220.974L117.294 211.63Z" fill="black"/>
<path d="M105.381 219.658L105.851 216.195L102.075 215.683L102.227 214.568L106.002 215.08L106.486 211.513L102.265 210.94L102.416 209.825L107.99 210.582L106.582 220.956L101.008 220.2L101.16 219.086L105.381 219.658Z" fill="black"/>
<path d="M85.0276 216.044L86.1689 212.74L82.5678 211.496L82.9352 210.433L86.5363 211.677L87.7119 208.274L83.6854 206.883L84.0528 205.82L89.3694 207.657L85.9504 217.553L80.6338 215.716L81.0011 214.653L85.0276 216.044Z" fill="black"/>
<path d="M69.9087 199.971L71.1064 200.626L71.9291 210.564L75.9232 203.26L77.1209 203.915L72.0976 213.101L70.9 212.446L70.0701 202.521L66.0831 209.812L64.8855 209.158L69.9087 199.971Z" fill="black"/>
<path d="M50.5136 196.495C50.346 197.149 50.3679 197.779 50.5793 198.385C50.7843 198.998 51.1673 199.538 51.7282 200.005C52.2891 200.472 52.905 200.764 53.5759 200.881C54.2328 200.998 54.8934 200.924 55.5579 200.657C56.2083 200.392 56.7959 199.945 57.3207 199.314C57.8455 198.684 58.1795 198.026 58.3227 197.338C58.4583 196.644 58.4121 195.981 58.184 195.348C57.9419 194.717 57.5404 194.168 56.9795 193.701C56.1957 193.048 55.3551 192.745 54.4576 192.791C53.56 192.837 52.7362 193.225 51.9861 193.953L55.1902 196.622L54.4798 197.475L50.1577 193.875L50.8297 193.068C51.4416 192.459 52.1547 192.025 52.9689 191.766C53.7768 191.515 54.6032 191.468 55.4483 191.625C56.287 191.79 57.0598 192.167 57.7667 192.756C58.512 193.376 59.048 194.116 59.3747 194.974C59.695 195.839 59.7765 196.733 59.6192 197.657C59.4542 198.573 59.0453 199.424 58.3925 200.207C57.7397 200.991 56.9774 201.547 56.1055 201.875C55.2196 202.204 54.3253 202.286 53.4226 202.119C52.5135 201.961 51.6863 201.571 50.941 200.95C50.0881 200.24 49.5111 199.401 49.21 198.435C48.9012 197.462 48.917 196.466 49.2573 195.448L50.5136 196.495Z" fill="black"/>
<path d="M38.3379 189.754L45.8373 182.47L46.7884 183.449L39.289 190.733L38.3379 189.754Z" fill="black"/>
<path d="M37.186 172.66L37.985 173.767L34.4481 183.091L41.1982 178.218L41.9971 179.325L33.5078 185.453L32.7089 184.346L36.2336 175.031L29.4956 179.895L28.6967 178.788L37.186 172.66Z" fill="black"/>
<path d="M22.7288 168.205L25.8317 166.597L24.0784 163.214L25.0772 162.697L26.8305 166.079L30.0267 164.423L28.0662 160.641L29.065 160.123L31.6536 165.117L22.3582 169.935L19.7696 164.941L20.7684 164.423L22.7288 168.205Z" fill="black"/>
<path d="M16.4633 155.915L19.7491 154.724L18.4509 151.142L19.5086 150.759L20.8068 154.341L24.1914 153.114L22.7398 149.109L23.7975 148.726L25.7141 154.014L15.8707 157.582L13.954 152.294L15.0117 151.91L16.4633 155.915Z" fill="black"/>
<path d="M19.994 136.676L16.2862 139.951L16.6077 141.57L20.8008 140.737L21.0667 142.075L10.8122 144.113L10.1545 140.802C10.0006 140.028 10.0034 139.349 10.163 138.767C10.3206 138.175 10.5987 137.701 10.9973 137.347C11.3959 136.992 11.8845 136.758 12.4632 136.643C13.1694 136.502 13.8332 136.585 14.4545 136.889C15.0738 137.184 15.5526 137.721 15.8909 138.5L19.6754 135.072L19.994 136.676ZM15.5337 141.783L15.142 139.812C14.9978 139.086 14.7131 138.576 14.2879 138.284C13.8529 137.993 13.3363 137.907 12.738 138.026C12.1298 138.147 11.6951 138.422 11.4337 138.851C11.1704 139.27 11.1118 139.848 11.2579 140.583L11.6496 142.555L15.5337 141.783Z" fill="black"/>
<path d="M7.71648 127.016L18.1149 125.93L18.2567 127.288L7.85831 128.374L7.71648 127.016Z" fill="black"/>
<path d="M17.3825 112.723L17.3246 114.087L8.77413 119.219L17.0916 119.572L17.0337 120.936L6.57313 120.492L6.63106 119.128L15.1666 113.995L6.86405 113.643L6.92197 112.279L17.3825 112.723Z" fill="black"/>
<path d="M11.9098 93.6791C11.2486 93.8171 10.6928 94.1144 10.2424 94.5711C9.78231 95.0254 9.46618 95.6072 9.29405 96.3167C9.12191 97.0261 9.13148 97.7075 9.32277 98.3611C9.5067 99.0025 9.86469 99.5628 10.3968 100.042C10.9215 100.509 11.5822 100.839 12.3791 101.032C13.176 101.225 13.9146 101.235 14.5949 101.06C15.2776 100.876 15.8526 100.542 16.3197 100.059C16.7796 99.5633 17.0955 98.9608 17.2677 98.2514C17.5082 97.2602 17.4099 96.372 16.9727 95.5867C16.5355 94.8015 15.8246 94.2328 14.8398 93.8807L13.8565 97.9331L12.7778 97.6713L14.1042 92.205L15.1246 92.4526C15.9415 92.7331 16.6456 93.1818 17.2368 93.7986C17.8183 94.413 18.2247 95.1342 18.456 95.9621C18.6776 96.7876 18.6799 97.6474 18.463 98.5415C18.2343 99.4841 17.8069 100.291 17.181 100.962C16.5453 101.631 15.7785 102.099 14.8805 102.365C13.9848 102.621 13.0414 102.628 12.0502 102.388C11.0589 102.147 10.224 101.708 9.54528 101.07C8.85923 100.42 8.39188 99.653 8.14321 98.7694C7.88483 97.8835 7.87 96.9693 8.09873 96.0266C8.36048 94.9479 8.85881 94.0604 9.59373 93.3641C10.331 92.658 11.2315 92.2334 12.2953 92.0902L11.9098 93.6791Z" fill="black"/>
<path d="M17.3968 67.9671L18.3898 68.4632L17.1158 71.0127L25.4753 75.1898L24.8652 76.4109L16.5057 72.2337L15.2251 74.7966L14.2321 74.3004L17.3968 67.9671Z" fill="black"/>
<path d="M22.6824 60.0765L25.5749 62.0383L27.7135 58.8851L28.6445 59.5166L26.5059 62.6698L29.4853 64.6905L31.8765 61.165L32.8075 61.7965L29.6501 66.4517L20.9852 60.5746L24.1426 55.9194L25.0736 56.5509L22.6824 60.0765Z" fill="black"/>
<path d="M32.2447 52.1617C31.5156 51.4483 31.0224 50.644 30.7652 49.7488C30.5008 48.8465 30.4804 47.9522 30.7041 47.0658C30.9348 46.1723 31.3893 45.3788 32.0677 44.6855C32.865 43.8707 33.7574 43.3518 34.745 43.1289C35.7325 42.906 36.7237 43.0083 37.7183 43.4359L36.5749 44.6046C35.9218 44.3713 35.2814 44.3323 34.6537 44.4876C34.033 44.6358 33.4569 44.9815 32.9254 45.5247C32.4149 46.0465 32.0783 46.6336 31.9157 47.2859C31.7531 47.9383 31.7816 48.6027 32.0011 49.2792C32.2135 49.9487 32.6199 50.5771 33.2203 51.1646C33.8135 51.745 34.4507 52.1376 35.1318 52.3424C35.8057 52.5401 36.467 52.5506 37.1157 52.3738C37.7643 52.197 38.3439 51.8477 38.8545 51.3259C39.386 50.7827 39.7226 50.2027 39.8644 49.5859C40.006 48.955 39.9531 48.3156 39.7056 47.6678L40.849 46.4991C41.2911 47.4772 41.4114 48.4624 41.2101 49.4546C41.0016 50.4398 40.4987 51.3398 39.7015 52.1547C39.0231 52.848 38.2433 53.3232 37.3622 53.5803C36.4809 53.8233 35.5899 53.8259 34.6893 53.5882C33.7886 53.3505 32.9737 52.875 32.2447 52.1617Z" fill="black"/>
<path d="M49.89 28.4425L55.9159 36.9862L54.8004 37.7729L52.0684 33.8994L47.7169 36.9686L50.4489 40.8421L49.3334 41.6288L43.3075 33.0851L44.423 32.2984L47.0685 36.0493L51.42 32.9801L48.7745 29.2292L49.89 28.4425Z" fill="black"/>
<path d="M71.086 27.6464L69.8453 28.2154L61.3848 22.9366L64.855 30.5039L63.6142 31.0729L59.2499 21.5559L60.4906 20.9869L68.9449 26.252L65.4809 18.6984L66.7217 18.1294L71.086 27.6464Z" fill="black"/>
<path d="M84.251 22.1405C83.3066 22.362 82.3936 22.3451 81.512 22.0897C80.6281 21.8246 79.8648 21.3514 79.2222 20.6702C78.5871 19.9769 78.1531 19.1338 77.9201 18.1407C77.6871 17.1477 77.702 16.2044 77.9649 15.3107C78.2352 14.405 78.7083 13.6418 79.3844 13.021C80.0582 12.3904 80.8673 11.9643 81.8116 11.7428C82.7657 11.5189 83.6847 11.5396 84.5687 11.8047C85.4503 12.0601 86.2075 12.5295 86.8404 13.2131C87.4732 13.8966 87.9073 14.7397 88.1425 15.7425C88.3778 16.7453 88.364 17.6935 88.1012 18.5872C87.8383 19.4808 87.37 20.2429 86.6962 20.8735C86.0202 21.4943 85.2051 21.9166 84.251 22.1405ZM83.9803 20.9868C84.691 20.8201 85.2899 20.505 85.7769 20.0415C86.2736 19.5757 86.6107 18.9985 86.7881 18.3097C86.9752 17.6187 86.974 16.8692 86.7844 16.0611C86.5926 15.2433 86.2603 14.5715 85.7877 14.0455C85.3225 13.5075 84.7688 13.1393 84.1264 12.9407C83.4841 12.7422 82.8027 12.7274 82.0823 12.8965C81.3619 13.0655 80.7581 13.3817 80.2711 13.8452C79.7841 14.3087 79.447 14.8859 79.2599 15.5769C79.0803 16.2559 79.0863 17.0043 79.2782 17.8221C79.4678 18.6302 79.7952 19.3032 80.2603 19.8412C80.7352 20.3769 81.2938 20.744 81.9362 20.9425C82.5882 21.1388 83.2696 21.1535 83.9803 20.9868Z" fill="black"/>
<path d="M99.7766 17.5082L103.421 17.17L103.523 18.2752L98.52 18.7396L97.5538 8.32938L98.9129 8.20323L99.7766 17.5082Z" fill="black"/>
<path d="M114.329 17.5431C113.363 17.4608 112.5 17.1617 111.741 16.6455C110.983 16.1193 110.404 15.4328 110.005 14.5859C109.616 13.7298 109.464 12.7937 109.551 11.7773C109.637 10.761 109.944 9.86879 110.471 9.10069C111.009 8.32347 111.695 7.74457 112.531 7.36399C113.367 6.97344 114.268 6.81927 115.235 6.90147C116.211 6.98453 117.078 7.28912 117.836 7.81527C118.595 8.33145 119.17 9.01257 119.56 9.85864C119.949 10.7047 120.1 11.6409 120.013 12.6672C119.926 13.6935 119.619 14.5907 119.092 15.3588C118.565 16.1269 117.883 16.7062 117.047 17.0968C116.212 17.4773 115.306 17.6261 114.329 17.5431ZM114.43 16.3623C115.157 16.4242 115.824 16.3103 116.431 16.0207C117.048 15.7319 117.547 15.2876 117.929 14.6879C118.322 14.0889 118.553 13.376 118.623 12.549C118.694 11.712 118.587 10.9702 118.301 10.3236C118.025 9.66792 117.613 9.14611 117.064 8.75818C116.515 8.37024 115.871 8.14492 115.134 8.08221C114.397 8.0195 113.725 8.13295 113.118 8.42257C112.511 8.7122 112.012 9.15647 111.62 9.75539C111.238 10.3452 111.012 11.0586 110.941 11.8956C110.871 12.7226 110.973 13.4639 111.249 14.1196C111.534 14.7762 111.951 15.2984 112.5 15.6863C113.059 16.0751 113.703 16.3004 114.43 16.3623Z" fill="black"/>
<path d="M138.52 13.1861C138.413 12.5194 138.141 11.9506 137.705 11.4799C137.272 10.9996 136.705 10.6573 136.005 10.4531C135.304 10.2488 134.622 10.2274 133.961 10.3887C133.312 10.5432 132.736 10.8754 132.233 11.3851C131.743 11.888 131.383 12.533 131.154 13.3203C130.924 14.1075 130.881 14.8449 131.024 15.5325C131.177 16.2229 131.485 16.8124 131.946 17.3011C132.42 17.783 133.008 18.1261 133.709 18.3304C134.688 18.6157 135.58 18.558 136.384 18.157C137.188 17.756 137.789 17.0717 138.185 16.104L134.182 14.9373L134.493 13.8716L139.893 15.4455L139.599 16.4535C139.282 17.2568 138.801 17.9397 138.158 18.5022C137.518 19.0552 136.779 19.4283 135.942 19.6217C135.107 19.8055 134.248 19.7686 133.365 19.5112C132.433 19.2398 131.647 18.7762 131.005 18.1203C130.365 17.4549 129.933 16.6675 129.709 15.7584C129.494 14.852 129.529 13.9092 129.814 12.93C130.1 11.9507 130.576 11.1366 131.245 10.4877C131.925 9.83192 132.713 9.39996 133.607 9.19177C134.503 8.97398 135.417 9.00079 136.349 9.2722C137.414 9.58277 138.278 10.121 138.94 10.8869C139.612 11.6555 139.995 12.5744 140.09 13.6436L138.52 13.1861Z" fill="black"/>
<path d="M158.658 17.1302L152.75 21.4977L151.026 25.046L149.798 24.4495L151.522 20.9011L151.291 13.5511L152.654 14.2132L152.66 20.1033L157.295 16.4681L158.658 17.1302Z" fill="black"/>
<path d="M175.76 26.7513C176.639 27.4777 177.261 28.2711 177.627 29.1313C178.007 29.9903 178.114 30.8644 177.95 31.7536C177.793 32.6492 177.374 33.5093 176.692 34.3339C176.011 35.1586 175.245 35.7319 174.394 36.054C173.558 36.3748 172.683 36.4294 171.768 36.2178C170.867 36.0049 169.977 35.5353 169.098 34.8089L166.59 32.7347L173.252 24.6772L175.76 26.7513ZM169.815 33.9418C170.856 34.8021 171.876 35.1848 172.875 35.09C173.881 34.9876 174.795 34.4392 175.617 33.445C176.446 32.4431 176.815 31.4315 176.725 30.4101C176.643 29.3951 176.086 28.4606 175.053 27.6068L173.597 26.4024L168.359 32.7375L169.815 33.9418Z" fill="black"/>
<path d="M187.98 38.5518L185.386 40.8943L187.939 43.7219L187.104 44.4759L184.551 41.6483L181.879 44.0611L184.734 47.2227L183.899 47.9767L180.129 43.8021L187.9 36.7848L191.67 40.9594L190.835 41.7134L187.98 38.5518Z" fill="black"/>
<path d="M190.666 55.8965C190.283 55.3226 190.038 54.7404 189.932 54.1497C189.84 53.5617 189.887 53.0195 190.073 52.5229C190.266 52.0208 190.598 51.6073 191.066 51.2825L191.874 52.4926C191.494 52.8063 191.26 53.203 191.172 53.6829C191.097 54.1655 191.249 54.6896 191.626 55.2552C191.987 55.7958 192.403 56.1311 192.875 56.2611C193.36 56.394 193.815 56.3188 194.239 56.0356C194.572 55.8135 194.781 55.5416 194.867 55.2198C194.953 54.898 194.958 54.5638 194.883 54.2171C194.808 53.8705 194.677 53.4227 194.491 52.8736C194.258 52.1998 194.099 51.6383 194.016 51.189C193.938 50.7481 193.974 50.2974 194.123 49.8369C194.286 49.3792 194.638 48.9698 195.179 48.6089C195.653 48.2924 196.153 48.1326 196.68 48.1295C197.207 48.1264 197.715 48.2744 198.203 48.5737C198.697 48.8812 199.133 49.3177 199.511 49.8833C200.055 50.6983 200.295 51.4997 200.232 52.2874C200.174 53.0835 199.831 53.7396 199.201 54.2559L198.369 53.0084C198.673 52.7447 198.848 52.3757 198.892 51.9014C198.944 51.4216 198.801 50.928 198.463 50.4206C198.146 49.9466 197.763 49.6431 197.314 49.5103C196.873 49.3719 196.432 49.4499 195.991 49.7441C195.675 49.9551 195.475 50.2146 195.392 50.5225C195.315 50.8387 195.308 51.1618 195.372 51.4919C195.45 51.8246 195.581 52.2725 195.764 52.8354C195.989 53.5147 196.139 54.0818 196.215 54.5366C196.298 54.9859 196.261 55.4435 196.103 55.9096C195.954 56.3701 195.604 56.7835 195.056 57.15C194.631 57.4332 194.157 57.5874 193.633 57.6127C193.109 57.638 192.583 57.508 192.056 57.2227C191.529 56.9374 191.065 56.4953 190.666 55.8965Z" fill="black"/>
<path d="M206.911 61.7337L197.719 66.7159L197.069 65.5159L206.26 60.5337L206.911 61.7337Z" fill="black"/>
<path d="M210.386 75.8755C210.866 75.4004 211.171 74.8488 211.301 74.2207C211.441 73.5893 211.39 72.929 211.149 72.2399C210.908 71.5509 210.53 70.984 210.014 70.5393C209.511 70.1007 208.906 69.825 208.199 69.712C207.505 69.6052 206.771 69.6871 205.997 69.9578C205.223 70.2285 204.597 70.6219 204.121 71.1381C203.648 71.6637 203.347 72.2564 203.217 72.9161C203.101 73.582 203.163 74.2594 203.404 74.9485C203.741 75.9113 204.306 76.6036 205.099 77.0252C205.893 77.4468 206.799 77.5379 207.817 77.2984L206.44 73.3622L207.488 72.9958L209.345 78.3054L208.354 78.652C207.516 78.8604 206.681 78.8664 205.849 78.6698C205.027 78.47 204.294 78.0854 203.65 77.5161C203.016 76.9435 202.546 76.223 202.243 75.3545C201.923 74.4389 201.843 73.5293 202.003 72.6256C202.174 71.7185 202.563 70.9095 203.173 70.1985C203.786 69.4969 204.573 68.9777 205.536 68.641C206.499 68.3043 207.439 68.2193 208.355 68.3862C209.284 68.5591 210.093 68.9489 210.782 69.5555C211.48 70.1588 211.99 70.9183 212.31 71.8339C212.676 72.8817 212.74 73.8975 212.502 74.8814C212.266 75.8748 211.741 76.7206 210.926 77.4188L210.386 75.8755Z" fill="black"/>
<path d="M208.632 96.8017L208.428 95.452L215.838 88.7782L207.606 90.0238L207.402 88.6742L217.754 87.1076L217.959 88.4573L210.564 95.1288L218.78 93.8855L218.984 95.2351L208.632 96.8017Z" fill="black"/>
</svg>
