<svg width="50" height="50" viewBox="0 0 50 50" fill="none" xmlns="http://www.w3.org/2000/svg">
<g id="ic:round-alarm">
<path id="Vector" d="M32.9271 31.1478L25.9067 26.9814V17.5445C25.9067 16.7112 25.2401 16.0446 24.4068 16.0446H24.2819C23.4486 16.0446 22.7819 16.7112 22.7819 17.5445V27.3772C22.7819 28.1063 23.1569 28.7938 23.8027 29.1687L31.4064 33.731C32.1147 34.1476 33.0313 33.9393 33.4479 33.231C33.8854 32.5019 33.6562 31.5644 32.9271 31.1478ZM43.9889 9.81582L37.5727 4.48282C36.6977 3.7537 35.3853 3.85786 34.6354 4.75364C33.9062 5.62858 34.0312 6.941 34.9062 7.69095L41.3016 13.0239C42.1765 13.7531 43.489 13.6489 44.2389 12.7531C44.4155 12.5439 44.5492 12.302 44.6322 12.0411C44.7152 11.7802 44.746 11.5055 44.7228 11.2327C44.6996 10.9598 44.6228 10.6943 44.4969 10.4512C44.371 10.2081 44.1984 9.99217 43.9889 9.81582ZM8.40787 13.0239L14.8033 7.69095C15.6991 6.941 15.8241 5.62858 15.0741 4.75364C14.9014 4.54289 14.6886 4.36853 14.448 4.24068C14.2074 4.11282 13.9438 4.03401 13.6725 4.00882C13.4012 3.98362 13.1275 4.01255 12.8675 4.09392C12.6075 4.17529 12.3662 4.30748 12.1576 4.48282L5.74137 9.81582C5.53194 9.99217 5.35933 10.2081 5.23341 10.4512C5.10749 10.6943 5.03072 10.9598 5.0075 11.2327C4.98429 11.5055 5.01507 11.7802 5.0981 12.0411C5.18113 12.302 5.31477 12.5439 5.49139 12.7531C6.22051 13.6489 7.53292 13.7531 8.40787 13.0239ZM24.8651 7.71178C19.8924 7.71206 15.1234 9.68775 11.6073 13.2042C8.09123 16.7207 6.11607 21.4899 6.11635 26.4627C6.11662 31.4354 8.09231 36.2044 11.6088 39.7205C15.1253 43.2366 19.8945 45.2117 24.8672 45.2115C27.3295 45.2113 29.7676 44.7262 32.0424 43.7838C34.3172 42.8414 36.3841 41.4602 38.1251 39.719C39.8661 37.9779 41.247 35.9108 42.1892 33.6359C43.1313 31.361 43.6162 28.9228 43.616 26.4606C43.6159 23.9983 43.1308 21.5602 42.1884 19.2854C41.246 17.0106 39.8648 14.9437 38.1236 13.2027C36.3824 11.4618 34.3154 10.0808 32.0405 9.13863C29.7656 8.19649 27.3274 7.71165 24.8651 7.71178ZM24.8651 41.043C16.824 41.043 10.2827 34.5017 10.2827 26.4606C10.2827 18.4194 16.824 11.8782 24.8651 11.8782C32.9063 11.8782 39.4475 18.4194 39.4475 26.4606C39.4475 34.5017 32.9063 41.043 24.8651 41.043Z" fill="white"/>
</g>
</svg>
