<svg xmlns="http://www.w3.org/2000/svg" width="75" height="75" viewBox="0 0 51 51" fill="none">
  <g clip-path="url(#clip0_2004_1018)">
    <path d="M30.9536 30.7793C30.2065 29.9326 29.3848 29.1855 28.4883 28.5381C27.5918 27.8906 26.6289 27.3345 25.5996 26.8696C24.5703 26.4048 23.5244 26.0645 22.4619 25.8486C21.3994 25.6328 20.2871 25.5166 19.125 25.5C17.6641 25.5 16.2529 25.6909 14.8916 26.0728C13.5303 26.4546 12.2603 26.9858 11.0815 27.6665C9.90283 28.3472 8.83203 29.1772 7.86914 30.1567C6.90625 31.1362 6.07617 32.2153 5.37891 33.394C4.68164 34.5728 4.14209 35.8428 3.76025 37.2041C3.37842 38.5654 3.1875 39.9766 3.1875 41.4375H0C0 39.4453 0.290527 37.5278 0.871582 35.6851C1.45264 33.8423 2.29102 32.1406 3.38672 30.5801C4.48242 29.0195 5.77734 27.6333 7.27148 26.4214C8.76562 25.2095 10.459 24.2549 12.3516 23.5576C10.4756 22.3291 9.01465 20.7852 7.96875 18.9258C6.92285 17.0664 6.3916 15.0078 6.375 12.75C6.375 10.9902 6.70703 9.33838 7.37109 7.79443C8.03516 6.25049 8.93994 4.89746 10.0854 3.73535C11.231 2.57324 12.584 1.66016 14.1445 0.996094C15.7051 0.332031 17.3652 0 19.125 0C20.8848 0 22.5366 0.332031 24.0806 0.996094C25.6245 1.66016 26.9775 2.56494 28.1396 3.71045C29.3018 4.85596 30.2148 6.20898 30.8789 7.76953C31.543 9.33008 31.875 10.9902 31.875 12.75C31.875 13.8457 31.7422 14.9165 31.4766 15.9624C31.2109 17.0083 30.8125 17.9961 30.2812 18.9258C29.75 19.8555 29.1274 20.7104 28.4136 21.4907C27.6997 22.271 26.8613 22.96 25.8984 23.5576C27.293 24.0889 28.6045 24.7695 29.833 25.5996C31.0615 26.4297 32.1821 27.4009 33.1948 28.5132L30.9536 30.7793ZM9.5625 12.75C9.5625 14.0781 9.81152 15.3149 10.3096 16.4604C10.8076 17.606 11.4883 18.6187 12.3516 19.4985C13.2148 20.3784 14.2275 21.0674 15.3896 21.5654C16.5518 22.0635 17.7969 22.3125 19.125 22.3125C20.4365 22.3125 21.6733 22.0635 22.8354 21.5654C23.9976 21.0674 25.0103 20.3867 25.8735 19.5234C26.7368 18.6602 27.4258 17.6475 27.9404 16.4854C28.4551 15.3232 28.7041 14.0781 28.6875 12.75C28.6875 11.4385 28.4385 10.2017 27.9404 9.03955C27.4424 7.87744 26.7617 6.86475 25.8984 6.00146C25.0352 5.13818 24.0142 4.44922 22.8354 3.93457C21.6567 3.41992 20.4199 3.1709 19.125 3.1875C17.7969 3.1875 16.5601 3.43652 15.4146 3.93457C14.269 4.43262 13.2563 5.11328 12.3765 5.97656C11.4966 6.83984 10.8076 7.86084 10.3096 9.03955C9.81152 10.2183 9.5625 11.4551 9.5625 12.75ZM46.0195 22.3125C46.7168 22.3125 47.3643 22.437 47.9619 22.686C48.5596 22.9351 49.0908 23.2754 49.5557 23.707C50.0205 24.1387 50.3691 24.6616 50.6016 25.2759C50.834 25.8901 50.9668 26.5459 51 27.2432C51 27.8906 50.8755 28.5215 50.6265 29.1357C50.3774 29.75 50.0205 30.2896 49.5557 30.7544L31.7007 48.6094L22.3125 50.9502L24.6533 41.562L42.5083 23.7319C42.9897 23.2505 43.5293 22.8936 44.127 22.6611C44.7246 22.4287 45.3555 22.3125 46.0195 22.3125ZM47.2896 28.5132C47.6382 28.1646 47.8125 27.7412 47.8125 27.2432C47.8125 26.7285 47.6465 26.3135 47.3145 25.998C46.9824 25.6826 46.5508 25.5166 46.0195 25.5C45.7871 25.5 45.563 25.5332 45.3472 25.5996C45.1313 25.666 44.9404 25.7905 44.7744 25.9731L27.542 43.2056L26.6953 46.5674L30.0571 45.7207L47.2896 28.5132Z" fill="#fff"/>
  </g>
  <defs>
    <clipPath id="clip0_2004_1018">
      <rect width="75" height="75" fill="#fff"/>
    </clipPath>
  </defs>
</svg>