<svg width="80" height="80" viewBox="0 0 80 80" fill="none" xmlns="http://www.w3.org/2000/svg">
<g id="carbon:drone">
<path id="Vector" d="M17.5 30C15.0277 30 12.611 29.2669 10.5554 27.8934C8.49976 26.5199 6.89761 24.5676 5.95151 22.2835C5.00542 19.9995 4.75787 17.4861 5.24019 15.0614C5.7225 12.6366 6.91301 10.4093 8.66117 8.66117C10.4093 6.91301 12.6366 5.7225 15.0614 5.24019C17.4861 4.75787 19.9995 5.00542 22.2835 5.95151C24.5676 6.89761 26.5199 8.49976 27.8934 10.5554C29.2669 12.611 30 15.0277 30 17.5H25C25 16.0166 24.5601 14.5666 23.736 13.3332C22.9119 12.0999 21.7406 11.1386 20.3701 10.5709C18.9997 10.0033 17.4917 9.85473 16.0368 10.1441C14.582 10.4335 13.2456 11.1478 12.1967 12.1967C11.1478 13.2456 10.4335 14.582 10.1441 16.0368C9.85473 17.4917 10.0033 18.9997 10.5709 20.3701C11.1386 21.7406 12.0999 22.9119 13.3332 23.736C14.5666 24.5601 16.0166 25 17.5 25V30ZM62.5 30V25C63.9834 25 65.4334 24.5601 66.6668 23.736C67.9001 22.9119 68.8614 21.7406 69.4291 20.3701C69.9968 18.9997 70.1453 17.4917 69.8559 16.0368C69.5665 14.582 68.8522 13.2456 67.8033 12.1967C66.7544 11.1478 65.418 10.4335 63.9632 10.1441C62.5083 9.85473 61.0003 10.0033 59.6299 10.5709C58.2594 11.1386 57.0881 12.0999 56.264 13.3332C55.4399 14.5666 55 16.0166 55 17.5H50C50 15.0277 50.7331 12.611 52.1066 10.5554C53.4802 8.49976 55.4324 6.89761 57.7165 5.95151C60.0005 5.00542 62.5139 4.75787 64.9386 5.24019C67.3634 5.7225 69.5907 6.91301 71.3388 8.66117C73.087 10.4093 74.2775 12.6366 74.7598 15.0614C75.2421 17.4861 74.9946 19.9995 74.0485 22.2835C73.1024 24.5676 71.5002 26.5199 69.4446 27.8934C67.389 29.2669 64.9723 30 62.5 30ZM17.5 75C14.1848 75 11.0054 73.683 8.66117 71.3388C6.31697 68.9946 5.00001 65.8152 5.00001 62.5C5.00001 59.1848 6.31697 56.0054 8.66117 53.6612C11.0054 51.317 14.1848 50 17.5 50V55C16.0166 55 14.5666 55.4399 13.3332 56.264C12.0999 57.0881 11.1386 58.2594 10.5709 59.6299C10.0033 61.0003 9.85473 62.5083 10.1441 63.9632C10.4335 65.418 11.1478 66.7544 12.1967 67.8033C13.2456 68.8522 14.582 69.5665 16.0368 69.8559C17.4917 70.1453 18.9997 69.9968 20.3701 69.4291C21.7406 68.8614 22.9119 67.9001 23.736 66.6668C24.5601 65.4334 25 63.9834 25 62.5H30C29.996 65.814 28.6778 68.9911 26.3345 71.3345C23.9911 73.6778 20.814 74.996 17.5 75ZM62.5 75C59.186 74.996 56.0089 73.6778 53.6656 71.3345C51.3222 68.9911 50.004 65.814 50 62.5H55C55 63.9834 55.4399 65.4334 56.264 66.6668C57.0881 67.9001 58.2594 68.8614 59.6299 69.4291C61.0003 69.9968 62.5083 70.1453 63.9632 69.8559C65.418 69.5665 66.7544 68.8522 67.8033 67.8033C68.8522 66.7544 69.5665 65.418 69.8559 63.9632C70.1453 62.5083 69.9968 61.0003 69.4291 59.6299C68.8614 58.2594 67.9001 57.0881 66.6668 56.264C65.4334 55.4399 63.9834 55 62.5 55V50C65.8152 50 68.9946 51.317 71.3388 53.6612C73.683 56.0054 75 59.1848 75 62.5C75 65.8152 73.683 68.9946 71.3388 71.3388C68.9946 73.683 65.8152 75 62.5 75Z" fill="black" fill-opacity="0.4"/>
<path id="Vector_2" d="M50 46.4654V33.5354L64.2675 19.2679C64.5062 19.0373 64.6967 18.7615 64.8277 18.4565C64.9587 18.1514 65.0277 17.8234 65.0306 17.4915C65.0335 17.1595 64.9702 16.8303 64.8445 16.5231C64.7188 16.2158 64.5332 15.9367 64.2984 15.702C64.0637 15.4672 63.7846 15.2816 63.4773 15.1559C63.1701 15.0302 62.8409 14.9669 62.509 14.9698C62.177 14.9727 61.849 15.0417 61.5439 15.1727C61.2389 15.3037 60.9631 15.4942 60.7325 15.7329L49.4825 26.9829C48.8528 24.9601 47.5929 23.1915 45.8867 21.9356C44.1804 20.6797 42.1173 20.0022 39.9987 20.0022C37.8801 20.0022 35.817 20.6797 34.1108 21.9356C32.4045 23.1915 31.1446 24.9601 30.515 26.9829L19.2675 15.7329C18.7986 15.2643 18.1629 15.001 17.5 15.001C16.837 15.001 16.2013 15.2643 15.7325 15.7329C15.2638 16.2018 15.0005 16.8375 15.0005 17.5004C15.0005 18.1634 15.2638 18.7991 15.7325 19.2679L30 33.5354V46.4654L15.7325 60.7329C15.2638 61.2018 15.0005 61.8375 15.0005 62.5005C15.0005 63.1634 15.2638 63.7991 15.7325 64.268C16.2013 64.7366 16.837 64.9999 17.5 64.9999C18.1629 64.9999 18.7986 64.7366 19.2675 64.268L30.5175 53.0179C31.1471 55.0408 32.407 56.8094 34.1133 58.0653C35.8195 59.3212 37.8826 59.9987 40.0012 59.9987C42.1198 59.9987 44.1829 59.3212 45.8892 58.0653C47.5954 56.8094 48.8553 55.0408 49.485 53.0179L60.735 64.268C61.2065 64.7233 61.838 64.9753 62.4935 64.9696C63.1489 64.9639 63.776 64.701 64.2395 64.2375C64.703 63.774 64.9659 63.1469 64.9716 62.4915C64.9773 61.836 64.7253 61.2045 64.27 60.7329L50 46.4654ZM45 50.0004C45 51.3265 44.4732 52.5983 43.5355 53.536C42.5978 54.4737 41.326 55.0005 40 55.0005C38.6739 55.0005 37.4021 54.4737 36.4644 53.536C35.5267 52.5983 35 51.3265 35 50.0004V30.0004C35 28.6744 35.5267 27.4026 36.4644 26.4649C37.4021 25.5272 38.6739 25.0004 40 25.0004C41.326 25.0004 42.5978 25.5272 43.5355 26.4649C44.4732 27.4026 45 28.6744 45 30.0004V50.0004Z" fill="black" fill-opacity="0.4"/>
</g>
</svg>
