<svg xmlns="http://www.w3.org/2000/svg" width="30" height="30" viewBox="0 0 30 30" fill="none">
  <path d="M26.9325 9.92435C26.5809 9.57284 26.104 9.37537 25.6068 9.37537C25.1097 9.37537 24.6328 9.57284 24.2812 9.92435L15 19.2056L5.71872 9.92435C5.36509 9.5828 4.89146 9.39381 4.39984 9.39808C3.90822 9.40235 3.43795 9.59955 3.09031 9.94719C2.74267 10.2948 2.54548 10.7651 2.54121 11.2567C2.53694 11.7483 2.72593 12.222 3.06747 12.5756L13.6743 23.1825C14.026 23.534 14.5028 23.7314 15 23.7314C15.4972 23.7314 15.974 23.534 16.3256 23.1825L26.9325 12.5756C27.284 12.224 27.4814 11.7472 27.4814 11.25C27.4814 10.7528 27.284 10.276 26.9325 9.92435Z" fill="white"/>
</svg>