<svg xmlns="http://www.w3.org/2000/svg" width="67" height="67" viewBox="0 0 67 67" fill="none">
  <path d="M27.1046 0C12.2228 0 0.158665 12.0641 0.158665 26.9459C0.158665 31.7175 1.40062 36.2044 3.57976 40.0951L0.281 48.7274C-0.934801 51.9087 1.99186 55.1177 5.27147 54.1991L15.583 51.3109C19.0785 52.9666 22.9861 53.8919 27.1046 53.8919C41.9863 53.8919 54.0506 41.828 54.0506 26.9459C54.0506 12.0641 41.9863 0 27.1046 0ZM27.0739 16.1723C25.5898 16.4623 23.9694 17.4252 22.6878 19.6793C22.122 20.6745 20.8565 21.0226 19.8614 20.4567C18.8662 19.891 18.5182 18.6255 19.084 17.6304C20.9116 14.416 23.5108 12.6447 26.2788 12.1037C28.9855 11.5747 31.6762 12.257 33.7085 13.6026C35.7133 14.9301 37.3346 17.0971 37.3864 19.699C37.4403 22.4108 35.787 24.8596 32.7468 26.6572C30.6799 27.8795 29.8759 28.7083 29.5342 29.2589C29.2465 29.7224 29.177 30.1451 29.177 31.0915C29.177 32.2362 28.2489 33.1642 27.1042 33.1642C25.9594 33.1642 25.0314 32.2362 25.0314 31.0915C25.0314 29.965 25.0891 28.5598 26.0119 27.0728C26.8807 25.6731 28.3705 24.4291 30.6367 23.0889C32.8544 21.7775 33.2565 20.5273 33.2416 19.7813C33.2247 18.9255 32.6533 17.8759 31.4196 17.0591C30.2132 16.2602 28.6194 15.8702 27.0739 16.1723ZM28.1402 43.5281C26.4231 43.5281 25.0311 42.136 25.0311 40.4189C25.0311 38.7018 26.4231 37.3098 28.1402 37.3098C29.8573 37.3098 31.2493 38.7018 31.2493 40.4189C31.2493 42.136 29.8573 43.5281 28.1402 43.5281Z" fill="#fff" />
  <path d="M18.9624 56.96C23.9039 62.6962 31.2208 66.3281 39.3861 66.3281C43.5046 66.3281 47.4122 65.4028 50.9077 63.7471L61.2193 66.6353C64.4989 67.554 67.4256 64.3449 66.2097 61.1636L62.9107 52.5314C65.09 48.6404 66.332 44.1537 66.332 39.3822C66.332 31.3382 62.8071 24.1175 57.2181 19.1802C57.82 21.5206 58.1558 23.9676 58.1923 26.4872C60.7119 30.1548 62.1865 34.5962 62.1865 39.3822C62.1865 43.7383 60.9669 47.803 58.8514 51.2612L58.3199 52.1305L62.3374 62.6432L50.4812 59.3226L49.759 59.6924C46.6494 61.2838 43.1257 62.1826 39.3861 62.1826C34.4981 62.1826 29.9692 60.6446 26.2573 58.0259C23.7396 57.9583 21.2965 57.5918 18.9624 56.96Z" fill="#fff"/>
</svg>