<svg width="457" height="31" viewBox="0 0 457 31" fill="none" xmlns="http://www.w3.org/2000/svg">
<path d="M36.5113 2.12934V29.3941C36.5122 29.6701 36.5885 29.9407 36.7319 30.1767C36.8754 30.4127 37.0806 30.6051 37.3255 30.7333C37.5704 30.8616 37.8457 30.9207 38.1218 30.9044C38.3978 30.888 38.6642 30.7969 38.8922 30.6407L58.6185 17.0083C59.4364 16.4433 59.4364 15.0831 58.6185 14.5166L38.8922 0.884256C38.6646 0.726461 38.3981 0.633927 38.1216 0.616706C37.8451 0.599486 37.5692 0.658238 37.3238 0.786579C37.0784 0.91492 36.8729 1.10794 36.7296 1.34467C36.5864 1.5814 36.5109 1.85279 36.5113 2.12934ZM55.089 15.7617L39.5462 26.504V5.0194L55.089 15.7617Z" fill="#D71928"/>
<path d="M76.651 2.12934V29.3941C76.6519 29.6701 76.7281 29.9407 76.8716 30.1767C77.0151 30.4127 77.2203 30.6051 77.4652 30.7333C77.7101 30.8616 77.9853 30.9207 78.2614 30.9044C78.5375 30.888 78.8038 30.7969 79.0318 30.6407L98.7582 17.0083C99.5761 16.4433 99.5761 15.0831 98.7582 14.5166L79.0318 0.884256C78.8043 0.726461 78.5378 0.633927 78.2613 0.616706C77.9848 0.599486 77.7088 0.658238 77.4634 0.786579C77.218 0.91492 77.0125 1.10794 76.8693 1.34467C76.7261 1.5814 76.6506 1.85279 76.651 2.12934ZM95.2287 15.7617L79.6858 26.504V5.0194L95.2287 15.7617Z" fill="#D71928"/>
<path d="M116.791 2.12934V29.3941C116.792 29.6701 116.868 29.9407 117.012 30.1767C117.155 30.4127 117.36 30.6051 117.605 30.7333C117.85 30.8616 118.125 30.9207 118.402 30.9044C118.678 30.888 118.944 30.7969 119.172 30.6407L138.898 17.0083C139.716 16.4433 139.716 15.0831 138.898 14.5166L119.172 0.884256C118.944 0.726461 118.678 0.633927 118.401 0.616706C118.125 0.599486 117.849 0.658238 117.604 0.786579C117.358 0.91492 117.153 1.10794 117.009 1.34467C116.866 1.5814 116.791 1.85279 116.791 2.12934ZM135.369 15.7617L119.826 26.504V5.0194L135.369 15.7617Z" fill="#D71928"/>
<path d="M156.931 2.12934V29.3941C156.932 29.6701 157.008 29.9407 157.151 30.1767C157.295 30.4127 157.5 30.6051 157.745 30.7333C157.99 30.8616 158.265 30.9207 158.541 30.9044C158.817 30.888 159.084 30.7969 159.312 30.6407L179.038 17.0083C179.856 16.4433 179.856 15.0831 179.038 14.5166L159.312 0.884256C159.084 0.726461 158.818 0.633927 158.541 0.616706C158.265 0.599486 157.989 0.658238 157.743 0.786579C157.498 0.91492 157.292 1.10794 157.149 1.34467C157.006 1.5814 156.93 1.85279 156.931 2.12934ZM175.508 15.7617L159.966 26.504V5.0194L175.508 15.7617Z" fill="#D71928"/>
<path d="M197.07 2.12934V29.3941C197.071 29.6701 197.148 29.9407 197.291 30.1767C197.434 30.4127 197.64 30.6051 197.885 30.7333C198.129 30.8616 198.405 30.9207 198.681 30.9044C198.957 30.888 199.223 30.7969 199.451 30.6407L219.178 17.0083C219.995 16.4433 219.995 15.0831 219.178 14.5166L199.451 0.884256C199.224 0.726461 198.957 0.633927 198.681 0.616706C198.404 0.599486 198.128 0.658238 197.883 0.786579C197.637 0.91492 197.432 1.10794 197.289 1.34467C197.145 1.5814 197.07 1.85279 197.07 2.12934ZM215.648 15.7617L200.105 26.504V5.0194L215.648 15.7617Z" fill="#D71928"/>
<path d="M237.21 2.12934V29.3941C237.211 29.6701 237.287 29.9407 237.431 30.1767C237.574 30.4127 237.779 30.6051 238.024 30.7333C238.269 30.8616 238.544 30.9207 238.82 30.9044C239.097 30.888 239.363 30.7969 239.591 30.6407L259.317 17.0083C260.135 16.4433 260.135 15.0831 259.317 14.5166L239.591 0.884256C239.363 0.726461 239.097 0.633927 238.82 0.616706C238.544 0.599486 238.268 0.658238 238.022 0.786579C237.777 0.91492 237.572 1.10794 237.428 1.34467C237.285 1.5814 237.21 1.85279 237.21 2.12934ZM255.788 15.7617L240.245 26.504V5.0194L255.788 15.7617Z" fill="#D71928"/>
<path d="M277.35 2.12934V29.3941C277.351 29.6701 277.427 29.9407 277.57 30.1767C277.714 30.4127 277.919 30.6051 278.164 30.7333C278.409 30.8616 278.684 30.9207 278.96 30.9044C279.236 30.888 279.503 30.7969 279.731 30.6407L299.457 17.0083C300.275 16.4433 300.275 15.0831 299.457 14.5166L279.731 0.884256C279.503 0.726461 279.237 0.633927 278.96 0.616706C278.684 0.599486 278.408 0.658238 278.162 0.786579C277.917 0.91492 277.711 1.10794 277.568 1.34467C277.425 1.5814 277.349 1.85279 277.35 2.12934ZM295.927 15.7617L280.385 26.504V5.0194L295.927 15.7617Z" fill="#D71928"/>
<path d="M317.489 2.12934V29.3941C317.49 29.6701 317.567 29.9407 317.71 30.1767C317.853 30.4127 318.059 30.6051 318.304 30.7333C318.548 30.8616 318.824 30.9207 319.1 30.9044C319.376 30.888 319.642 30.7969 319.87 30.6407L339.597 17.0083C340.414 16.4433 340.414 15.0831 339.597 14.5166L319.87 0.884256C319.643 0.726461 319.376 0.633927 319.1 0.616706C318.823 0.599486 318.547 0.658238 318.302 0.786579C318.056 0.91492 317.851 1.10794 317.708 1.34467C317.564 1.5814 317.489 1.85279 317.489 2.12934ZM336.067 15.7617L320.524 26.504V5.0194L336.067 15.7617Z" fill="#D71928"/>
<path d="M357.629 2.12934V29.3941C357.63 29.6701 357.706 29.9407 357.85 30.1767C357.993 30.4127 358.198 30.6051 358.443 30.7333C358.688 30.8616 358.963 30.9207 359.239 30.9044C359.515 30.888 359.782 30.7969 360.01 30.6407L379.736 17.0083C380.554 16.4433 380.554 15.0831 379.736 14.5166L360.01 0.884256C359.782 0.726461 359.516 0.633927 359.239 0.616706C358.963 0.599486 358.687 0.658238 358.441 0.786579C358.196 0.91492 357.991 1.10794 357.847 1.34467C357.704 1.5814 357.629 1.85279 357.629 2.12934ZM376.207 15.7617L360.664 26.504V5.0194L376.207 15.7617Z" fill="#D71928"/>
<path d="M397.769 2.12934V29.3941C397.77 29.6701 397.846 29.9407 397.989 30.1767C398.133 30.4127 398.338 30.6051 398.583 30.7333C398.828 30.8616 399.103 30.9207 399.379 30.9044C399.655 30.888 399.921 30.7969 400.149 30.6407L419.876 17.0083C420.694 16.4433 420.694 15.0831 419.876 14.5166L400.149 0.884256C399.922 0.726461 399.655 0.633927 399.379 0.616706C399.102 0.599486 398.826 0.658238 398.581 0.786579C398.336 0.91492 398.13 1.10794 397.987 1.34467C397.844 1.5814 397.768 1.85279 397.769 2.12934ZM416.346 15.7617L400.803 26.504V5.0194L416.346 15.7617Z" fill="#D71928"/>
</svg>
