<svg xmlns="http://www.w3.org/2000/svg" width="80" height="80" viewBox="0 0 80 80" fill="none">
  <path d="M73.333 46.667H69.9997C69.9997 33.767 59.5663 23.3337 46.6663 23.3337H43.333V19.1003C44.3467 18.5151 45.1885 17.6732 45.7736 16.6594C46.3587 15.6456 46.6666 14.4956 46.6663 13.3251C46.666 12.1546 46.3575 11.0048 45.7719 9.99127C45.1862 8.97778 44.3441 8.13636 43.33 7.55161C42.316 6.96686 41.1659 6.65941 39.9954 6.66016C38.8249 6.66091 37.6752 6.96984 36.6619 7.55589C35.6486 8.14193 34.8075 8.98443 34.2232 9.99867C33.6388 11.0129 33.3318 12.1631 33.333 13.3337C33.333 15.8003 34.6663 17.967 36.6663 19.1003V23.3337H33.333C20.433 23.3337 9.99967 33.767 9.99967 46.667H6.66634C4.83301 46.667 3.33301 48.167 3.33301 50.0003V60.0003C3.33301 61.8337 4.83301 63.3337 6.66634 63.3337H9.99967V66.667C9.99967 68.4351 10.7021 70.1308 11.9523 71.381C13.2025 72.6313 14.8982 73.3337 16.6663 73.3337H63.333C67.033 73.3337 69.9997 70.367 69.9997 66.667V63.3337H73.333C75.1663 63.3337 76.6663 61.8337 76.6663 60.0003V50.0003C76.6663 48.167 75.1663 46.667 73.333 46.667ZM69.9997 56.667H63.333V66.667H16.6663V56.667H9.99967V53.3337H16.6663V46.667C16.6663 37.467 24.133 30.0003 33.333 30.0003H46.6663C55.8663 30.0003 63.333 37.467 63.333 46.667V53.3337H69.9997V56.667ZM58.333 51.667C58.333 55.367 55.3663 58.3337 51.6663 58.3337C48.433 58.3337 45.7663 56.0337 45.133 53.0003L54.9997 45.9337C56.9997 47.1003 58.333 49.2003 58.333 51.667ZM24.9997 45.9337L34.8663 53.0003C34.2663 56.0337 31.5663 58.3337 28.333 58.3337C26.5649 58.3337 24.8692 57.6313 23.619 56.381C22.3687 55.1308 21.6663 53.4351 21.6663 51.667C21.6663 49.2003 22.9997 47.1003 24.9997 45.9337Z" fill="black" fill-opacity="0.4"/>
</svg>