<svg xmlns="http://www.w3.org/2000/svg" width="80" height="80" viewBox="0 0 66 66" fill="none">
  <path fill-rule="evenodd" clip-rule="evenodd" d="M13.75 31.625C13.75 30.8957 14.0397 30.1962 14.5555 29.6805C15.0712 29.1647 15.7707 28.875 16.5 28.875H19.25C19.9793 28.875 20.6788 29.1647 21.1945 29.6805C21.7103 30.1962 22 30.8957 22 31.625V34.375C22 35.1043 21.7103 35.8038 21.1945 36.3195C20.6788 36.8353 19.9793 37.125 19.25 37.125H16.5C15.7707 37.125 15.0712 36.8353 14.5555 36.3195C14.0397 35.8038 13.75 35.1043 13.75 34.375V31.625ZM19.25 31.625V34.375H16.5V31.625H19.25ZM27.5 28.875C26.7707 28.875 26.0712 29.1647 25.5555 29.6805C25.0397 30.1962 24.75 30.8957 24.75 31.625V34.375C24.75 35.1043 25.0397 35.8038 25.5555 36.3195C26.0712 36.8353 26.7707 37.125 27.5 37.125H30.25C30.9793 37.125 31.6788 36.8353 32.1945 36.3195C32.7103 35.8038 33 35.1043 33 34.375V31.625C33 30.8957 32.7103 30.1962 32.1945 29.6805C31.6788 29.1647 30.9793 28.875 30.25 28.875H27.5ZM30.25 31.625H27.5V34.375H30.25V31.625ZM35.75 31.625C35.75 30.8957 36.0397 30.1962 36.5555 29.6805C37.0712 29.1647 37.7707 28.875 38.5 28.875H41.25C41.9793 28.875 42.6788 29.1647 43.1945 29.6805C43.7103 30.1962 44 30.8957 44 31.625V34.375C44 35.1043 43.7103 35.8038 43.1945 36.3195C42.6788 36.8353 41.9793 37.125 41.25 37.125H38.5C37.7707 37.125 37.0712 36.8353 36.5555 36.3195C36.0397 35.8038 35.75 35.1043 35.75 34.375V31.625ZM38.5 31.625H41.25V34.375H38.5V31.625ZM16.5 39.875C15.7707 39.875 15.0712 40.1647 14.5555 40.6805C14.0397 41.1962 13.75 41.8957 13.75 42.625V45.375C13.75 46.1043 14.0397 46.8038 14.5555 47.3195C15.0712 47.8353 15.7707 48.125 16.5 48.125H19.25C19.9793 48.125 20.6788 47.8353 21.1945 47.3195C21.7103 46.8038 22 46.1043 22 45.375V42.625C22 41.8957 21.7103 41.1962 21.1945 40.6805C20.6788 40.1647 19.9793 39.875 19.25 39.875H16.5ZM16.5 42.625V45.375H19.25V42.625H16.5ZM24.75 42.625C24.75 41.8957 25.0397 41.1962 25.5555 40.6805C26.0712 40.1647 26.7707 39.875 27.5 39.875H30.25C30.9793 39.875 31.6788 40.1647 32.1945 40.6805C32.7103 41.1962 33 41.8957 33 42.625V45.375C33 46.1043 32.7103 46.8038 32.1945 47.3195C31.6788 47.8353 30.9793 48.125 30.25 48.125H27.5C26.7707 48.125 26.0712 47.8353 25.5555 47.3195C25.0397 46.8038 24.75 46.1043 24.75 45.375V42.625ZM27.5 42.625H30.25V45.375H27.5V42.625Z" fill="#fff" />
  <path d="M48.125 43.3125C48.4897 43.3125 48.8394 43.4574 49.0973 43.7152C49.3551 43.9731 49.5 44.3228 49.5 44.6875V47.5557L50.4721 48.5279C50.7226 48.7872 50.8612 49.1345 50.8581 49.4951C50.8549 49.8556 50.7103 50.2004 50.4554 50.4554C50.2004 50.7103 49.8556 50.8549 49.4951 50.8581C49.1345 50.8612 48.7872 50.7226 48.5279 50.4721L46.75 48.6943V44.6875C46.75 44.3228 46.8949 43.9731 47.1527 43.7152C47.4106 43.4574 47.7603 43.3125 48.125 43.3125Z" fill="#fff" />
  <path fill-rule="evenodd" clip-rule="evenodd" d="M16.5 9.625C16.5 9.26033 16.6449 8.91059 16.9027 8.65273C17.1606 8.39487 17.5103 8.25 17.875 8.25C18.2397 8.25 18.5894 8.39487 18.8473 8.65273C19.1051 8.91059 19.25 9.26033 19.25 9.625V16.5C19.25 16.8647 19.1051 17.2144 18.8473 17.4723C18.5894 17.7301 18.2397 17.875 17.875 17.875C17.5103 17.875 17.1606 17.7301 16.9027 17.4723C16.6449 17.2144 16.5 16.8647 16.5 16.5V15.125H12.375C12.0103 15.125 11.6606 15.2699 11.4027 15.5277C11.1449 15.7856 11 16.1353 11 16.5V22H46.75V16.5C46.75 16.1353 46.6051 15.7856 46.3473 15.5277C46.0894 15.2699 45.7397 15.125 45.375 15.125H41.25V12.375H45.375C46.469 12.375 47.5182 12.8096 48.2918 13.5832C49.0654 14.3568 49.5 15.406 49.5 16.5V38.5962C51.9084 38.9443 54.0956 40.1916 55.6215 42.0871C57.1474 43.9827 57.8989 46.3857 57.7246 48.8129C57.5504 51.2401 56.4634 53.5112 54.6824 55.1693C52.9013 56.8274 50.5584 57.7495 48.125 57.75C46.5731 57.751 45.0441 57.3764 43.6685 56.658C42.2929 55.9397 41.1116 54.8991 40.2256 53.625H12.375C11.281 53.625 10.2318 53.1904 9.45818 52.4168C8.6846 51.6432 8.25 50.594 8.25 49.5V16.5C8.25 15.406 8.6846 14.3568 9.45818 13.5832C10.2318 12.8096 11.281 12.375 12.375 12.375H16.5V9.625ZM38.5 48.125C38.4997 45.8102 39.3335 43.5728 40.8487 41.8227C42.3639 40.0727 44.459 38.9272 46.75 38.5962V24.75H11V49.5C11 49.8647 11.1449 50.2144 11.4027 50.4723C11.6606 50.7301 12.0103 50.875 12.375 50.875H38.8988C38.6335 49.9824 38.4992 49.0561 38.5 48.125ZM48.125 55C49.9484 55 51.6971 54.2757 52.9864 52.9864C54.2757 51.697 55 49.9484 55 48.125C55 46.3016 54.2757 44.553 52.9864 43.2636C51.6971 41.9743 49.9484 41.25 48.125 41.25C46.3016 41.25 44.553 41.9743 43.2636 43.2636C41.9743 44.553 41.25 46.3016 41.25 48.125C41.25 49.9484 41.9743 51.697 43.2636 52.9864C44.553 54.2757 46.3016 55 48.125 55Z" fill="#fff" />
  <path d="M37.125 17.875C36.7603 17.875 36.4106 17.7301 36.1527 17.4723C35.8949 17.2144 35.75 16.8647 35.75 16.5V15.125H22V12.375H35.75V9.625C35.75 9.26033 35.8949 8.91059 36.1527 8.65273C36.4106 8.39487 36.7603 8.25 37.125 8.25C37.4897 8.25 37.8394 8.39487 38.0973 8.65273C38.3551 8.91059 38.5 9.26033 38.5 9.625V16.5C38.5 16.8647 38.3551 17.2144 38.0973 17.4723C37.8394 17.7301 37.4897 17.875 37.125 17.875Z" fill="#fff" />
</svg>