<svg width="348" height="95" viewBox="0 0 348 95" fill="none" xmlns="http://www.w3.org/2000/svg">
<path d="M0 48.5341H77.0382L78.3664 45.4318L79.6947 42.3295L82.3511 37.1591L85.0076 33.0227L86.3359 31.9886L87.6641 30.9545H90.3206L91.6489 33.0227L92.9771 36.125L102.275 71.2841L104.931 75.4205L107.588 76.4545H111.573L114.229 73.3523L115.557 68.1818L122.198 21.6477L124.855 17.5114L127.511 15.4432H131.496L134.153 17.5114L148.763 88.8636L152.748 91.9659L156.733 93L159.389 89.8977L160.718 84.7273L168.687 12.3409L171.344 4.06818L175.328 2H180.641L184.626 5.10227L187.282 12.3409L196.58 72.3182L199.237 76.4545L203.221 77.4886L205.878 75.4205L208.534 71.2841L209.863 68.1818L219.16 19.5795L221.817 16.4773L225.802 15.4432L229.786 18.5455L231.115 24.75L239.084 65.0795L241.74 66.1136H244.397L248.382 63.0114L249.71 59.9091L255.023 43.3636L257.679 40.2614H260.336H262.992L265.649 42.3295L270.962 56.8068L273.618 58.875H276.275L278.931 57.8409L282.916 51.6364L286.901 48.5341H292.214H348" stroke="black" stroke-width="3.46879"/>
</svg>
