<svg xmlns="http://www.w3.org/2000/svg" width="75" height="75" viewBox="0 0 40 40" fill="none">
    <path d="M38.5908 13.7045C40.9837 11.3116 39.8926 8.51667 38.5908 7.1575L32.8478 1.41451C30.4358 -0.978407 27.66 0.112761 26.3008 1.41451L23.0464 4.68801H18.0883C14.4511 4.68801 12.3453 6.60234 11.2733 8.80382L2.77368 17.3035V24.9608L1.41451 26.3008C-0.978408 28.7129 0.112761 31.4886 1.41451 32.8478L7.1575 38.5908C8.19124 39.6245 9.30155 40.0074 10.3544 40.0074C11.7136 40.0074 12.9579 39.3374 13.7045 38.5908L18.8732 33.403H25.7457C29 33.403 30.6463 31.3738 31.2398 29.3829C33.403 28.8086 34.5899 27.1623 35.0684 25.5542C38.0357 24.7885 39.146 21.9744 39.146 20.0027V14.2597H38.0165L38.5908 13.7045ZM35.3173 20.0027C35.3173 20.8641 34.9536 21.917 33.403 21.917H31.4886V23.8313C31.4886 24.6928 31.1249 25.7456 29.5743 25.7456H27.66V27.66C27.66 28.5214 27.2963 29.5743 25.7457 29.5743H17.3035L11.0244 35.8533C10.431 36.4085 10.0864 36.083 9.87585 35.8725L4.152 30.1678C3.59684 29.5743 3.92228 29.2297 4.13286 29.0192L6.60234 26.5305V18.8732L10.431 15.0445V18.0883C10.431 20.4047 11.9625 23.8313 16.174 23.8313C20.3855 23.8313 21.917 20.4047 21.917 18.0883H35.3173V20.0027ZM35.8725 10.9862L32.6181 14.2597H18.0883V18.0883C18.0883 18.9498 17.7246 20.0027 16.174 20.0027C14.6234 20.0027 14.2597 18.9498 14.2597 18.0883V12.3453C14.2597 11.4647 14.5851 8.51667 18.0883 8.51667H24.6162L28.9809 4.152C29.5743 3.59684 29.9189 3.92228 30.1295 4.13286L35.8533 9.83756C36.4085 10.431 36.083 10.7756 35.8725 10.9862Z" fill="#fff" />
</svg>