<svg width="50" height="50" viewBox="0 0 66 66  " fill="none" xmlns="http://www.w3.org/2000/svg">
<g id="logo-white (1) 2" clip-path="url(#clip0_2977_2841)">
<path id="Vector" d="M49.6749 1.22168C49.3818 2.48647 49.7691 5.77137 50.1098 6.99629C50.1241 7.03838 50.1863 7.13761 50.3216 7.19786C50.4909 7.27317 50.7868 7.29753 50.9981 7.28424C51.2093 7.27095 52.6046 7.56997 51.4178 5.9685C50.1633 4.29394 49.7174 1.34794 49.6749 1.22168Z" fill="#E8E8E8"/>
<path id="Vector_2" d="M52.166 21.063C52.4592 19.7982 52.0718 16.5133 51.7311 15.2884C51.7168 15.2463 51.6547 15.1471 51.5193 15.0868C51.3501 15.0115 51.0542 14.9871 50.8429 15.0004C50.6316 15.0137 49.2363 14.7147 50.4231 16.3162C51.6777 17.9907 52.1235 20.9367 52.166 21.063Z" fill="#E8E8E8"/>
<path id="Vector_3" d="M42.8301 17.0737C44.1171 16.7162 46.9087 14.8116 47.8555 13.9347C47.8868 13.9025 47.9469 13.802 47.9366 13.6582C47.9237 13.4783 47.8039 13.2153 47.6905 13.0422C47.5772 12.869 47.1791 11.5402 46.2967 13.3165C45.3806 15.1853 42.9242 16.977 42.8301 17.0737Z" fill="#E8E8E8"/>
<path id="Vector_4" d="M41.8184 6.38086C42.6986 7.3576 45.6639 8.99755 46.8857 9.45584C46.9292 9.46965 47.0486 9.47976 47.1789 9.4097C47.3416 9.32213 47.5368 9.10552 47.6508 8.9327C47.7646 8.75988 48.8387 7.84733 46.8029 7.82693C44.6662 7.81623 41.9486 6.4223 41.8184 6.38086Z" fill="#E8E8E8"/>
<path id="Vector_5" d="M59.9883 15.6282C59.0886 14.6681 56.0909 13.0844 54.8601 12.6492C54.8164 12.6362 54.6967 12.6283 54.5679 12.7008C54.407 12.7914 54.2161 13.0117 54.1057 13.1866C53.9953 13.3615 52.9398 14.2942 54.9756 14.2762C57.1121 14.2467 59.8572 15.5891 59.9883 15.6282Z" fill="#E8E8E8"/>
<path id="Vector_6" d="M59.5956 5.93945C58.264 6.07473 55.1727 7.47985 54.0827 8.18385C54.046 8.21031 53.9688 8.29907 53.953 8.44251C53.9333 8.62181 54.0042 8.90104 54.0846 9.09061C54.1651 9.28019 54.3184 10.6558 55.5066 9.05527C56.7447 7.36925 59.4856 6.01883 59.5956 5.93945Z" fill="#E8E8E8"/>
<path id="Vector_7" d="M16.0304 42.6195C7.16033 54.7851 2.27358 58.6215 0.938965 59.0191C2.68423 57.23 8.43334 48.6824 10.4866 45.7007C12.5398 42.7189 13.7718 41.1287 15.8251 38.3458C17.4677 36.1193 20.0685 33.5749 21.1636 32.581C19.8289 33.1774 13.1558 34.6682 14.3878 30.9908C15.3733 28.0488 20.616 26.9157 23.1141 26.7169C19.213 27.512 17.4677 28.6053 16.8516 29.5992C16.0304 31.7859 20.5476 29.798 21.5741 29.4004C22.6008 29.0029 27.3232 26.8163 32.7644 22.7412C37.1173 19.4812 41.5592 17.5398 43.236 16.9766C40.8747 18.3681 28.2473 29.0029 28.9659 28.7047C29.6845 28.4066 34.099 28.6053 34.8176 32.2829C35.3926 35.2248 32.7302 39.8697 31.3272 41.8244C32.2511 39.439 33.0724 36.3579 32.7644 33.8731C32.4564 31.3884 27.118 27.4127 16.0304 42.6195Z" fill="#E8E8E8"/>
<path id="Vector_8" d="M24.8594 23.0402C24.8594 24.4674 23.6643 25.6244 22.1902 25.6244C20.7161 25.6244 19.521 24.4674 19.521 23.0402C19.521 21.613 20.7161 20.4561 22.1902 20.4561C23.6643 20.4561 24.8594 21.613 24.8594 23.0402Z" fill="#E8E8E8"/>
<path id="Vector_9" d="M54.6415 3.80469C53.1632 4.28176 52.3829 6.12382 52.1776 6.98521C52.0755 7.33234 52.81 7.79246 53.1947 7.97913C53.3238 8.04181 53.8202 8.2773 53.7175 7.68095C53.2247 6.1702 54.1281 4.4673 54.6415 3.80469Z" fill="#E8E8E8"/>
<path id="Vector_10" d="M59.0743 10.8374C57.8989 9.8468 55.8636 10.1317 54.9929 10.398C54.6323 10.4892 54.5958 11.3353 54.6252 11.751C54.635 11.8906 54.6776 12.4241 55.156 12.0356C56.2499 10.8574 58.2239 10.7458 59.0743 10.8374Z" fill="#E8E8E8"/>
<path id="Vector_11" d="M55.1923 18.3359C55.6217 16.8857 54.4935 15.2211 53.8757 14.5701C53.6376 14.2924 52.8304 14.6187 52.4538 14.8204C52.3274 14.888 51.8461 15.1512 52.4123 15.4064C53.9779 15.8671 54.918 17.5514 55.1923 18.3359Z" fill="#E8E8E8"/>
<path id="Vector_12" d="M47.0352 18.4153C48.5175 17.9501 49.3136 16.1144 49.5263 15.2547C49.6313 14.9084 48.9008 14.4424 48.5177 14.2527C48.389 14.1889 47.8948 13.9494 47.9923 14.5466C48.4721 16.0612 47.5541 17.7568 47.0352 18.4153Z" fill="#E8E8E8"/>
<path id="Vector_13" d="M42.7236 10.6416C43.7683 11.7609 45.8242 11.7133 46.7215 11.5496C47.0909 11.5007 47.2314 10.6648 47.2535 10.2488C47.261 10.109 47.2845 9.57445 46.7616 9.90487C45.5302 10.9482 43.5565 10.8307 42.7236 10.6416Z" fill="#E8E8E8"/>
<path id="Vector_14" d="M46.8134 3.80469C46.3667 5.25004 47.475 6.92707 48.0851 7.58491C48.3198 7.86526 49.1308 7.54799 49.5098 7.35054C49.637 7.28423 50.1214 7.02647 49.5583 6.76497C47.9981 6.28686 47.0783 4.59223 46.8134 3.80469Z" fill="#E8E8E8"/>
</g>
<defs>
<clipPath id="clip0_2977_2841">
<rect width="122.871" height="65.0196" fill="white" transform="translate(0.939453 0.34375)"/>
</clipPath>
</defs>
</svg>
