<svg xmlns="http://www.w3.org/2000/svg" width="75" height="75" viewBox="0 0 55 55" fill="none">
  <path d="M20.6319 13.75C20.6319 11.9284 21.3555 10.1815 22.6435 8.89346C23.9315 7.60544 25.6785 6.88184 27.5 6.88184C29.3215 6.88184 31.0685 7.60544 32.3565 8.89346C33.6445 10.1815 34.3681 11.9284 34.3681 13.75C34.3681 15.5715 33.6445 17.3184 32.3565 18.6065C31.0685 19.8945 29.3215 20.6181 27.5 20.6181C25.6785 20.6181 23.9315 19.8945 22.6435 18.6065C21.3555 17.3184 20.6319 15.5715 20.6319 13.75ZM27.5 10.3193C27.0495 10.3193 26.6034 10.4081 26.1872 10.5805C25.7709 10.7529 25.3927 11.0056 25.0742 11.3241C24.7556 11.6427 24.5029 12.0209 24.3305 12.4371C24.1581 12.8533 24.0694 13.2994 24.0694 13.75C24.0694 14.2005 24.1581 14.6466 24.3305 15.0628C24.5029 15.479 24.7556 15.8572 25.0742 16.1758C25.3927 16.4943 25.7709 16.747 26.1872 16.9194C26.6034 17.0919 27.0495 17.1806 27.5 17.1806C28.4099 17.1806 29.2824 16.8191 29.9258 16.1758C30.5692 15.5324 30.9306 14.6598 30.9306 13.75C30.9306 12.8401 30.5692 11.9675 29.9258 11.3241C29.2824 10.6808 28.4099 10.3193 27.5 10.3193ZM37.8125 15.4687C37.8125 14.7916 37.9459 14.1211 38.205 13.4955C38.4641 12.8699 38.8439 12.3015 39.3227 11.8227C39.8015 11.3439 40.37 10.9641 40.9955 10.705C41.6211 10.4458 42.2916 10.3125 42.9688 10.3125C43.6459 10.3125 44.3164 10.4458 44.942 10.705C45.5675 10.9641 46.136 11.3439 46.6148 11.8227C47.0936 12.3015 47.4734 12.8699 47.7325 13.4955C47.9916 14.1211 48.125 14.7916 48.125 15.4687C48.125 16.8362 47.5818 18.1477 46.6148 19.1147C45.6478 20.0817 44.3363 20.625 42.9688 20.625C41.6012 20.625 40.2897 20.0817 39.3227 19.1147C38.3557 18.1477 37.8125 16.8362 37.8125 15.4687ZM42.9688 13.75C42.5129 13.75 42.0757 13.931 41.7534 14.2534C41.4311 14.5757 41.25 15.0129 41.25 15.4687C41.25 15.9246 41.4311 16.3617 41.7534 16.684C42.0757 17.0064 42.5129 17.1875 42.9688 17.1875C43.4246 17.1875 43.8618 17.0064 44.1841 16.684C44.5064 16.3617 44.6875 15.9246 44.6875 15.4687C44.6875 15.0129 44.5064 14.5757 44.1841 14.2534C43.8618 13.931 43.4246 13.75 42.9688 13.75ZM12.0313 10.3125C10.6637 10.3125 9.35222 10.8557 8.38523 11.8227C7.41825 12.7897 6.875 14.1012 6.875 15.4687C6.875 16.8362 7.41825 18.1477 8.38523 19.1147C9.35222 20.0817 10.6637 20.625 12.0313 20.625C13.3988 20.625 14.7103 20.0817 15.6773 19.1147C16.6443 18.1477 17.1875 16.8362 17.1875 15.4687C17.1875 14.1012 16.6443 12.7897 15.6773 11.8227C14.7103 10.8557 13.3988 10.3125 12.0313 10.3125ZM10.3125 15.4687C10.3125 15.0129 10.4936 14.5757 10.8159 14.2534C11.1382 13.931 11.5754 13.75 12.0313 13.75C12.4871 13.75 12.9243 13.931 13.2466 14.2534C13.5689 14.5757 13.75 15.0129 13.75 15.4687C13.75 15.9246 13.5689 16.3617 13.2466 16.684C12.9243 17.0064 12.4871 17.1875 12.0313 17.1875C11.5754 17.1875 11.1382 17.0064 10.8159 16.684C10.4936 16.3617 10.3125 15.9246 10.3125 15.4687ZM14.6713 24.0625C14.0663 25.1069 13.7484 26.2929 13.75 27.5H6.875V36.0937C6.87472 36.9487 7.08708 37.7904 7.49295 38.543C7.89882 39.2956 8.48547 39.9354 9.20009 40.4048C9.9147 40.8743 10.7348 41.1587 11.5867 41.2324C12.4385 41.3062 13.2954 41.1669 14.08 40.8271C14.3344 41.965 14.7331 43.0512 15.2488 44.0653C13.9441 44.5921 12.5301 44.7904 11.1308 44.643C9.73158 44.4956 8.38993 44.0069 7.22371 43.2198C6.05748 42.4327 5.10235 41.3713 4.44219 40.1288C3.78203 38.8863 3.43703 37.5007 3.4375 36.0937V27.5C3.4375 26.5883 3.79966 25.7139 4.44432 25.0693C5.08898 24.4246 5.96332 24.0625 6.875 24.0625H14.6713ZM39.7513 44.0653C41.0559 44.5921 42.4699 44.7904 43.8692 44.643C45.2684 44.4956 46.6101 44.0069 47.7763 43.2198C48.9425 42.4327 49.8977 41.3713 50.5578 40.1288C51.218 38.8863 51.563 37.5007 51.5625 36.0937V27.5C51.5625 26.5883 51.2003 25.7139 50.5557 25.0693C49.911 24.4246 49.0367 24.0625 48.125 24.0625H40.3288C40.9131 25.0731 41.25 26.2453 41.25 27.5H48.125V36.0937C48.1253 36.9487 47.9129 37.7904 47.5071 38.543C47.1012 39.2956 46.5145 39.9354 45.7999 40.4048C45.0853 40.8743 44.2652 41.1587 43.4133 41.2324C42.5615 41.3062 41.7046 41.1669 40.92 40.8271C40.6622 41.965 40.2669 43.0512 39.7513 44.0653ZM20.625 24.059C19.7133 24.059 18.839 24.4212 18.1943 25.0658C17.5497 25.7105 17.1875 26.5848 17.1875 27.4965V37.8125C17.1875 40.5475 18.274 43.1705 20.208 45.1045C22.1419 47.0385 24.765 48.125 27.5 48.125C30.235 48.125 32.8581 47.0385 34.792 45.1045C36.726 43.1705 37.8125 40.5475 37.8125 37.8125V27.5C37.8125 26.5883 37.4503 25.7139 36.8057 25.0693C36.161 24.4246 35.2867 24.0625 34.375 24.0625L20.625 24.059ZM20.625 27.4965H34.375V37.8125C34.375 39.6358 33.6507 41.3845 32.3614 42.6738C31.072 43.9631 29.3234 44.6875 27.5 44.6875C25.6766 44.6875 23.928 43.9631 22.6386 42.6738C21.3493 41.3845 20.625 39.6358 20.625 37.8125V27.4965Z" fill="#fff"/>
</svg>